HIERARCHY
ROOT Hips
{
    OFFSET 0.000000 0.000000 0.000000
    CHANNELS 6 Xposition Yposition Zposition Zrotation Xrotation Yrotation
    JOINT Chest
    {
        OFFSET -0.000000 0.071129 0.000000
        CHANNELS 3 Zrotation Xrotation Yrotation
        JOINT Chest2
        {
            OFFSET -0.000000 0.196697 0.000000
            CHANNELS 3 Zrotation Xrotation Yrotation
            JOINT Neck
            {
                OFFSET -0.000000 0.214046 0.000000
                CHANNELS 3 Zrotation Xrotation Yrotation
                JOINT Head
                {
                    OFFSET -0.000000 0.094115 0.017348
                    CHANNELS 3 Zrotation Xrotation Yrotation
                    End Site
                    {
                        OFFSET -0.000000 0.173484 0.000000
                    }
                }
            }
            JOINT LeftCollar
            {
                OFFSET 0.034321 0.181435 -0.001150
                CHANNELS 3 Zrotation Xrotation Yrotation
                JOINT LeftShoulder
                {
                    OFFSET 0.098451 0.000000 0.000000
                    CHANNELS 3 Zrotation Xrotation Yrotation
                    JOINT LeftElbow
                    {
                        OFFSET 0.267076 0.000000 0.000000
                        CHANNELS 3 Zrotation Xrotation Yrotation
                        JOINT LeftWrist
                        {
                            OFFSET 0.220717 0.000000 0.000000
                            CHANNELS 3 Zrotation Xrotation Yrotation
                            End Site
                            {
                                OFFSET 0.000000 -0.130113 0.000000
                            }
                        }
                    }
                }
            }
            JOINT RightCollar
            {
                OFFSET -0.035036 0.181435 -0.001150
                CHANNELS 3 Zrotation Xrotation Yrotation
                JOINT RightShoulder
                {
                    OFFSET -0.098451 0.000000 0.000000
                    CHANNELS 3 Zrotation Xrotation Yrotation
                    JOINT RightElbow
                    {
                        OFFSET -0.267076 0.000000 0.000000
                        CHANNELS 3 Zrotation Xrotation Yrotation
                        JOINT RightWrist
                        {
                            OFFSET -0.220717 0.000000 0.000000
                            CHANNELS 3 Zrotation Xrotation Yrotation
                            End Site
                            {
                                OFFSET -0.000000 -0.130113 0.000000
                            }
                        }
                    }
                }
            }
        }
    }
    JOINT LeftHip
    {
        OFFSET 0.086742 0.000000 0.000000
        CHANNELS 3 Zrotation Xrotation Yrotation
        JOINT LeftKnee
        {
            OFFSET -0.000000 -0.402679 0.000000
            CHANNELS 3 Zrotation Xrotation Yrotation
            JOINT LeftAnkle
            {
                OFFSET -0.000000 -0.332160 0.000000
                CHANNELS 3 Zrotation Xrotation Yrotation
                JOINT LeftToe
                {
                    OFFSET -0.000000 -0.056382 0.130113
                    CHANNELS 3 Zrotation Xrotation Yrotation
                    End Site
                    {
                        OFFSET -0.000000 0.000000 0.034697
                    }
                }
            }
        }
    }
    JOINT RightHip
    {
        OFFSET -0.086742 0.000000 0.000000
        CHANNELS 3 Zrotation Xrotation Yrotation
        JOINT RightKnee
        {
            OFFSET -0.000000 -0.402679 0.000000
            CHANNELS 3 Zrotation Xrotation Yrotation
            JOINT RightAnkle
            {
                OFFSET -0.000000 -0.332160 0.000000
                CHANNELS 3 Zrotation Xrotation Yrotation
                JOINT RightToe
                {
                    OFFSET -0.000000 -0.056382 0.130113
                    CHANNELS 3 Zrotation Xrotation Yrotation
                    End Site
                    {
                        OFFSET -0.000000 0.000000 0.034697
                    }
                }
            }
        }
    }
}
MOTION
Frames:    12
Frame Time:    0.016667
0.202329    0.703380    -0.192213    -0.898848    4.316210    94.826530    0.047141    7.817530    8.931146    -10.017866    4.696344    3.389104    -8.677314    7.378927    8.758826    0.617195    0.962234    7.241553    1.759778    -0.060011    -6.419358    -46.562485    6.555959    -11.801346    7.586459    -11.698106    -16.019310    118.958725    4.287465    9.541817    -2.545051    6.126418    15.038066    49.705124    27.164383    22.344061    -23.449434    -14.105873    15.344635    -145.600510    5.959016    -7.834500    0.169135    -32.459663    7.503664    -38.201748    57.365993    43.308308    8.533507    -26.749226    8.524224    0.000000    0.000000    0.000000    0.274224    -2.725962    -21.582495    -11.805113    60.444084    1.112247    6.109951    -29.527651    26.223721    0.000000    0.000000    0.000000    
0.204496    0.700302    -0.192353    -0.763161    4.683571    95.066673    -0.262865    8.165257    8.915342    -10.152609    4.798757    3.391439    -8.471716    7.106191    8.797405    0.548155    0.127704    7.356202    1.381009    0.313327    -6.967805    -47.068756    8.305879    -12.458563    6.906180    -12.351595    -15.568149    117.329994    4.523989    10.326397    -2.355833    6.414339    15.338132    49.795872    29.348129    22.864246    -22.213974    -14.149759    14.692089    -144.756821    7.047357    -7.667840    -0.280903    -32.531059    7.642569    -38.676369    58.212299    43.505341    8.776353    -27.181326    8.974904    0.000000    0.000000    0.000000    -0.403486    -2.992399    -22.618589    -12.977537    61.871792    2.664431    5.675939    -29.383108    25.886894    0.000000    0.000000    0.000000    
0.206486    0.697494    -0.192174    -0.836372    4.989957    95.353958    -0.582021    8.380915    8.822191    -10.250068    4.723298    3.349950    -8.420013    6.698037    8.854369    0.747145    -0.361471    7.433000    1.077474    0.579583    -7.411505    -47.604939    9.742206    -13.082582    5.764897    -13.119502    -15.118527    116.081642    4.412579    11.350356    -2.041789    6.829063    15.476395    49.322727    32.001652    23.876257    -21.067448    -14.106640    13.649163    -142.421951    8.423175    -7.468187    -0.242607    -33.026562    8.215647    -40.361996    59.462929    31.628424    14.998526    -24.234182    23.333542    0.000000    0.000000    0.000000    -0.939336    -3.488951    -22.936476    -13.726423    63.302044    4.116089    5.379423    -29.127695    25.367096    0.000000    0.000000    0.000000    
0.208197    0.695388    -0.192139    -0.922836    5.262578    95.761269    -0.816271    8.499848    8.700926    -10.328493    4.826496    3.316349    -8.291543    6.264567    8.818762    0.770499    -0.838883    7.452969    0.905345    0.357148    -7.953866    -48.414505    11.417116    -13.420585    4.696508    -12.948351    -14.836950    114.343018    4.554141    11.368763    -1.935493    6.952046    15.604183    48.994087    34.668999    24.819561    -19.738811    -14.089353    12.947717    -140.444809    10.362074    -6.993711    -1.078621    -32.999939    7.161735    -40.002048    59.370632    44.568516    8.837418    -27.869364    9.180427    0.000000    0.000000    0.000000    -1.474461    -4.041666    -23.171268    -14.388000    64.658432    4.107613    5.506241    -28.568316    26.258394    0.000000    0.000000    0.000000    
0.210135    0.693869    -0.192233    -0.913624    5.578209    96.155045    -1.074434    8.764679    8.565201    -10.465732    4.738639    3.261922    -8.086402    5.975373    8.823139    0.899075    -1.190856    7.504210    0.815595    0.503523    -8.352714    -49.056530    13.096574    -13.989637    4.040592    -13.536362    -14.302669    111.786568    4.882108    12.102833    -1.798165    7.247433    15.806452    48.540630    37.114212    25.841831    -18.262732    -14.325879    12.641633    -137.528427    12.164373    -6.968420    -1.618834    -33.027054    6.963349    -40.067413    59.865334    44.785275    8.570498    -28.087666    8.956779    0.000000    0.000000    0.000000    -1.948150    -4.372724    -23.468758    -15.313102    65.695221    5.054684    5.514181    -27.827368    26.535242    0.000000    0.000000    0.000000    
0.212171    0.693019    -0.191957    -0.915687    5.756940    96.462288    -1.330428    8.900151    8.553262    -10.356598    4.765283    3.249059    -8.128364    5.671603    8.728295    1.100484    -1.499614    7.399350    0.710943    0.475440    -8.877384    -49.795200    14.779417    -14.372873    3.415771    -13.665648    -13.958163    109.555481    4.805183    12.430472    -1.906922    7.415397    16.038092    48.317265    39.262192    26.744427    -16.702492    -14.495962    12.582221    -135.549942    13.468381    -7.017327    -1.813477    -32.929161    6.501079    -40.957172    59.733433    45.429573    8.901814    -28.211199    9.286898    0.000000    0.000000    0.000000    -2.139260    -4.783216    -23.770241    -17.291056    66.534828    7.388857    5.683919    -26.745342    26.247009    0.000000    0.000000    0.000000    
0.214707    0.692842    -0.191615    -1.005364    5.925998    96.906036    -1.639537    8.994651    8.563008    -10.186468    4.692358    3.230308    -7.719203    5.393995    8.544329    0.772850    -1.746973    7.342872    0.534944    0.795790    -9.524606    -50.507389    16.271355    -15.201723    2.605785    -13.950591    -13.409894    105.446152    4.333490    13.065224    -1.801772    7.518304    16.122871    47.426140    42.377056    28.100821    -14.935976    -14.676034    12.652452    -132.696930    15.032130    -7.155234    -2.169269    -32.785263    6.387251    -40.596020    59.922474    44.806847    8.980577    -28.403496    9.398073    0.000000    0.000000    0.000000    -2.414043    -4.987374    -23.660013    -16.823727    67.134224    7.183829    5.519423    -25.629114    25.871628    0.000000    0.000000    0.000000    
0.216581    0.693437    -0.191072    -1.097951    5.948094    97.269409    -1.841457    8.989595    8.523538    -9.960332    4.723263    3.205447    -7.808158    4.883898    8.531384    1.217247    -1.620721    7.296812    0.457912    0.785379    -9.902718    -50.877583    17.827728    -15.830961    1.517566    -14.596716    -13.257708    102.737381    4.026534    13.976499    -1.772367    7.700675    16.330627    46.221573    44.719162    29.567680    -13.655330    -14.482532    12.755029    -130.243408    15.910039    -7.131273    -2.316821    -32.654671    6.268067    -40.139641    59.985691    44.201111    8.848881    -28.465755    9.267854    0.000000    0.000000    0.000000    -2.357367    -5.186023    -23.811098    -17.380260    67.219032    7.629003    5.832662    -24.285469    26.067724    0.000000    0.000000    0.000000    
0.218201    0.694756    -0.190500    -1.243007    5.873593    97.663170    -1.901099    9.042586    8.462633    -9.811971    4.545516    3.161913    -7.435334    4.617513    8.375708    0.829377    -1.545877    7.263112    0.384184    0.911864    -10.196351    -51.070965    20.001900    -16.539337    1.011007    -15.226015    -13.338483    101.044746    4.445902    14.681996    -1.770321    7.736322    16.632627    45.253468    47.122684    30.742308    -12.915311    -14.278110    12.942370    -128.436218    17.227514    -6.802686    -2.417797    -32.515625    6.055380    -39.613556    59.777763    43.457493    9.012603    -28.420622    9.442190    0.000000    0.000000    0.000000    -2.334732    -5.066974    -23.887955    -15.733068    66.874001    4.955970    6.282927    -23.779320    27.078598    0.000000    0.000000    0.000000    
0.219807    0.697086    -0.190124    -1.531278    5.867054    97.999878    -1.939267    8.934062    8.468183    -9.889838    4.450592    3.158354    -7.169877    4.176634    8.245882    0.834485    -1.331203    7.201005    0.481842    0.841134    -10.417234    -51.320595    21.722822    -17.274578    0.785404    -15.053823    -13.261700    98.379318    4.537796    14.633181    -1.661171    7.786500    16.689030    43.789154    49.606678    32.493404    -12.361619    -14.490204    13.340685    -124.679268    18.249655    -7.338974    -2.392737    -31.644791    -5.435066    -49.958614    50.167774    55.568733    10.316140    -29.297533    9.929160    0.000000    0.000000    0.000000    -2.270333    -5.437950    -23.848452    -16.137493    66.858902    7.085598    5.905324    -22.612360    25.048683    0.000000    0.000000    0.000000    
0.221658    0.699895    -0.189527    -1.711610    5.784393    98.195244    -2.019426    8.793220    8.554737    -9.765837    4.420470    3.178846    -7.222116    4.110930    8.131139    1.055667    -1.662553    7.054997    0.508109    0.939117    -10.732508    -51.014603    24.440796    -17.919331    0.693661    -15.794663    -13.767688    96.515747    4.354383    15.466218    -1.729079    7.774301    17.053717    42.941277    51.568172    33.584663    -11.965553    -14.670145    14.067369    -120.612274    19.159725    -7.942881    -2.201607    -32.326759    6.398383    -38.663513    59.368523    30.442957    14.045331    -24.965565    21.678669    0.000000    0.000000    0.000000    -2.025892    -5.470644    -23.953640    -16.349335    66.151871    6.424265    6.673683    -21.233217    25.896418    0.000000    0.000000    0.000000    
0.223109    0.704197    -0.188926    -2.038276    5.609177    98.780540    -1.937854    8.797321    8.317452    -9.770085    4.096179    3.076761    -7.292290    3.816879    8.043768    1.542585    -1.717474    6.916976    0.625421    1.040879    -11.010800    -50.814976    26.888159    -18.605324    1.554724    -15.729299    -13.990841    88.940849    2.118451    15.565310    -1.632727    7.783617    17.121096    41.327106    53.973625    35.454422    -11.613045    -15.484928    15.398699    -114.469559    19.896505    -9.605155    -2.828796    -31.770119    5.735820    -35.582287    58.241207    39.670959    8.147987    -27.495731    8.357430    0.000000    0.000000    0.000000    -2.083593    -5.292100    -23.913857    -13.240035    65.216225    3.302744    6.496008    -20.098495    26.292372    0.000000    0.000000    0.000000    
